<svg width="2884" height="2052" viewBox="0 0 2884 2052" fill="none" xmlns="http://www.w3.org/2000/svg">
<g opacity="0.12">
<line x1="2" y1="4" x2="1.99991" y2="2052" stroke="white" stroke-width="2"/>
<line x1="242" y1="4" x2="242" y2="2052" stroke="white" stroke-width="2"/>
<line x1="482" y1="4" x2="482" y2="2052" stroke="white" stroke-width="2"/>
<line x1="722" y1="4" x2="722" y2="2052" stroke="white" stroke-width="2"/>
<line x1="962" y1="4" x2="962" y2="2052" stroke="white" stroke-width="2"/>
<line x1="1202" y1="4" x2="1202" y2="2052" stroke="white" stroke-width="2"/>
<line x1="1442" y1="4" x2="1442" y2="2052" stroke="white" stroke-width="2"/>
<line x1="1682" y1="4" x2="1682" y2="2052" stroke="white" stroke-width="2"/>
<line x1="1922" y1="4" x2="1922" y2="2052" stroke="white" stroke-width="2"/>
<line x1="2162" y1="4" x2="2162" y2="2052" stroke="white" stroke-width="2"/>
<line x1="2402" y1="4" x2="2402" y2="2052" stroke="white" stroke-width="2"/>
<line x1="2642" y1="4" x2="2642" y2="2052" stroke="white" stroke-width="2"/>
<line x1="2882" y1="4" x2="2882" y2="2052" stroke="white" stroke-width="2"/>
<line x1="8.74227e-08" y1="1922" x2="2880" y2="1922" stroke="white" stroke-width="2"/>
<line x1="8.74227e-08" y1="1682" x2="2880" y2="1682" stroke="white" stroke-width="2"/>
<line x1="8.74227e-08" y1="1442" x2="2880" y2="1442" stroke="white" stroke-width="2"/>
<line x1="8.74227e-08" y1="1214" x2="2880" y2="1214" stroke="white" stroke-width="2"/>
<line x1="8.74227e-08" y1="962" x2="2880" y2="962" stroke="white" stroke-width="2"/>
<line x1="8.74227e-08" y1="722" x2="2880" y2="722" stroke="white" stroke-width="2"/>
<line x1="8.74227e-08" y1="482" x2="2880" y2="482" stroke="white" stroke-width="2"/>
<line x1="8.74227e-08" y1="242" x2="2880" y2="242" stroke="white" stroke-width="2"/>
<line x1="8.74227e-08" y1="2" x2="2880" y2="2.00013" stroke="white" stroke-width="2"/>
</g>
</svg>
